0
SECTION
2
HEADER
9
$INSUNITS
70
4
0
ENDSEC
0
SECTION
2
TABLES
0
TABLE
2
LTYPE
0
LTYPE
72
65
70
0
2
CONTINUOUS
3
______
73
0
40
0
0
LTYPE
72
65
70
0
2
DASHED
3
_ _ _ 
73
2
40
7.5
49
5
49
-2.5
0
LTYPE
72
65
70
0
2
DOTTED
3
. . . 
73
2
40
1.5
49
0.5
49
-1
0
ENDTAB
0
TABLE
2
LAYER
0
ENDTAB
0
ENDSEC
0
SECTION
2
ENTITIES
0
LINE
8
0
6
CONTINUOUS
10
37.6165
20
-24.8420285
11
-13.8759567
21
-8.8239826
0
LINE
8
0
6
CONTINUOUS
10
-15.8826274
20
-5.1829263
11
-1.2130665
21
49.5646203
0
LINE
8
0
6
CONTINUOUS
10
1.8523966
20
51.7834732
11
34.3535471
21
49.9639693
0
LINE
8
0
6
CONTINUOUS
10
34.4410883
20
49.9603499
11
61.6360095
21
49.233583
0
LINE
8
0
6
CONTINUOUS
10
63.5012226
20
48.518419
11
82.4385098
21
32.3872562
0
LINE
8
0
6
CONTINUOUS
10
82.4594846
20
32.369222
11
109.7493851
21
8.6854671
0
LINE
8
0
6
CONTINUOUS
10
110.327197
20
4.8299781
11
89.8581861
21
-27.927287
0
LINE
8
0
6
CONTINUOUS
10
89.8089669
20
-31.0251781
11
100.2376916
21
-48.9582564
0
LINE
8
0
6
CONTINUOUS
10
100.5794557
20
-49.4326218
11
121.6362209
21
-73.3475931
0
LINE
8
0
6
CONTINUOUS
10
121.4749583
20
-77.4819497
11
90.5983756
21
-107.4757735
0
LINE
8
0
6
CONTINUOUS
10
86.2841302
20
-107.3374274
11
43.393813
21
-59.9653902
0
LINE
8
0
6
CONTINUOUS
10
42.6310956
20
-58.2348339
11
39.7120194
21
-27.4236723
0
ARC
8
0
6
CONTINUOUS
10
-12.9848499
20
-5.9593833
40
3
50
165.0000021
51
252.7203588
0
ARC
8
0
6
CONTINUOUS
10
1.684711
20
48.7881633
40
3
50
86.7957709
51
165.0000021
0
ARC
8
0
6
CONTINUOUS
10
34.5212327
20
52.9592792
40
3
50
266.7957709
51
268.4691726
0
ARC
8
0
6
CONTINUOUS
10
61.5558651
20
46.2346537
40
3
50
49.574971
51
88.4691726
0
ARC
8
0
6
CONTINUOUS
10
80.4931523
20
30.1034909
40
3
50
49.0466678
51
49.574971
0
ARC
8
0
6
CONTINUOUS
10
107.7830528
20
6.419736
40
3
50
327.9999984
51
49.0466678
0
ARC
8
0
6
CONTINUOUS
10
92.4023304
20
-29.5170448
40
3
50
147.9999984
51
210.1795271
0
ARC
8
0
6
CONTINUOUS
10
102.831055
20
-47.4501231
40
3
50
210.1795271
51
221.363424
0
ARC
8
0
6
CONTINUOUS
10
119.3846217
20
-75.3300918
40
3
50
314.1691414
51
41.363424
0
ARC
8
0
6
CONTINUOUS
10
88.508039
20
-105.3239155
40
3
50
222.1574776
51
314.1691414
0
ARC
8
0
6
CONTINUOUS
10
45.6177218
20
-57.9518784
40
3
50
185.4120965
51
222.1574776
0
ARC
8
0
6
CONTINUOUS
10
36.7253932
20
-27.7066278
40
3
50
5.4120965
51
72.7203588
0
ENDSEC
0
EOF