0
SECTION
2
HEADER
9
$INSUNITS
70
4
0
ENDSEC
0
SECTION
2
TABLES
0
TABLE
2
LTYPE
0
LTYPE
72
65
70
0
2
CONTINUOUS
3
______
73
0
40
0
0
LTYPE
72
65
70
0
2
DASHED
3
_ _ _ 
73
2
40
7.5
49
5
49
-2.5
0
LTYPE
72
65
70
0
2
DOTTED
3
. . . 
73
2
40
1.5
49
0.5
49
-1
0
ENDTAB
0
TABLE
2
LAYER
0
ENDTAB
0
ENDSEC
0
SECTION
2
ENTITIES
0
LINE
8
0
6
CONTINUOUS
10
-10.5871081
20
-5.7042214
11
6.3165939
21
-10.2335547
0
LINE
8
0
6
CONTINUOUS
10
6.3165939
20
-10.2335547
11
10.5871081
21
5.7042214
0
LINE
8
0
6
CONTINUOUS
10
10.5871081
20
5.7042214
11
-6.3165939
21
10.2335547
0
LINE
8
0
6
CONTINUOUS
10
-6.3165939
20
10.2335547
11
-10.5871081
21
-5.7042214
0
LINE
8
0
6
CONTINUOUS
10
-5.6695462
20
12.6483693
11
11.2341558
21
8.119036
0
LINE
8
0
6
CONTINUOUS
10
11.2341558
20
8.119036
11
15.50467
21
24.0568121
0
LINE
8
0
6
CONTINUOUS
10
15.50467
20
24.0568121
11
-1.399032
21
28.5861454
0
LINE
8
0
6
CONTINUOUS
10
-1.399032
20
28.5861454
11
-5.6695462
21
12.6483693
0
LINE
8
0
6
CONTINUOUS
10
-0.7519844
20
31.00096
11
16.1517176
21
26.4716267
0
LINE
8
0
6
CONTINUOUS
10
16.1517176
20
26.4716267
11
20.4222318
21
42.4094028
0
LINE
8
0
6
CONTINUOUS
10
20.4222318
20
42.4094028
11
3.5185298
21
46.9387361
0
LINE
8
0
6
CONTINUOUS
10
3.5185298
20
46.9387361
11
-0.7519844
21
31.00096
0
LINE
8
0
6
CONTINUOUS
10
10.2667313
20
-5.3723847
11
26.7113521
21
-11.3577372
0
LINE
8
0
6
CONTINUOUS
10
26.7113521
20
-11.3577372
11
32.3546845
21
4.1471911
0
LINE
8
0
6
CONTINUOUS
10
32.3546845
20
4.1471911
11
15.9100637
21
10.1325436
0
LINE
8
0
6
CONTINUOUS
10
15.9100637
20
10.1325436
11
10.2667313
21
-5.3723847
0
LINE
8
0
6
CONTINUOUS
10
16.7651141
20
12.4817751
11
33.2097349
21
6.4964226
0
LINE
8
0
6
CONTINUOUS
10
33.2097349
20
6.4964226
11
38.8530673
21
22.0013509
0
LINE
8
0
6
CONTINUOUS
10
38.8530673
20
22.0013509
11
22.4084465
21
27.9867034
0
LINE
8
0
6
CONTINUOUS
10
22.4084465
20
27.9867034
11
16.7651141
21
12.4817751
0
LINE
8
0
6
CONTINUOUS
10
23.2634968
20
30.335935
11
39.7081176
21
24.3505825
0
LINE
8
0
6
CONTINUOUS
10
39.7081176
20
24.3505825
11
45.35145
21
39.8555108
0
LINE
8
0
6
CONTINUOUS
10
45.35145
20
39.8555108
11
28.9068292
21
45.8408633
0
LINE
8
0
6
CONTINUOUS
10
28.9068292
20
45.8408633
11
23.2634968
21
30.335935
0
LINE
8
0
6
CONTINUOUS
10
31.6373584
20
-4.3069178
11
47.8630758
21
-10.8625332
0
LINE
8
0
6
CONTINUOUS
10
47.8630758
20
-10.8625332
11
54.0440846
21
4.4360004
0
LINE
8
0
6
CONTINUOUS
10
54.0440846
20
4.4360004
11
37.8183672
21
10.9916158
0
LINE
8
0
6
CONTINUOUS
10
37.8183672
20
10.9916158
11
31.6373584
21
-4.3069178
0
LINE
8
0
6
CONTINUOUS
10
38.7548836
20
13.3095754
11
54.980601
21
6.75396
0
LINE
8
0
6
CONTINUOUS
10
54.980601
20
6.75396
11
61.1616098
21
22.0524936
0
LINE
8
0
6
CONTINUOUS
10
61.1616098
20
22.0524936
11
44.9358924
21
28.608109
0
LINE
8
0
6
CONTINUOUS
10
44.9358924
20
28.608109
11
38.7548836
21
13.3095754
0
LINE
8
0
6
CONTINUOUS
10
45.8724089
20
30.9260687
11
62.0981263
21
24.3704533
0
LINE
8
0
6
CONTINUOUS
10
62.0981263
20
24.3704533
11
68.2791351
21
39.6689869
0
LINE
8
0
6
CONTINUOUS
10
68.2791351
20
39.6689869
11
52.0534177
21
46.2246023
0
LINE
8
0
6
CONTINUOUS
10
52.0534177
20
46.2246023
11
45.8724089
21
30.9260687
0
LINE
8
0
6
CONTINUOUS
10
46.8458172
20
-18.2234484
11
62.4384314
21
-26.1682821
0
LINE
8
0
6
CONTINUOUS
10
62.4384314
20
-26.1682821
11
69.9292746
21
-11.4666744
0
LINE
8
0
6
CONTINUOUS
10
69.9292746
20
-11.4666744
11
54.3366604
21
-3.5218407
0
LINE
8
0
6
CONTINUOUS
10
54.3366604
20
-3.5218407
11
46.8458172
21
-18.2234484
0
LINE
8
0
6
CONTINUOUS
10
55.4716366
20
-1.2943244
11
71.0642508
21
-9.2391581
0
LINE
8
0
6
CONTINUOUS
10
71.0642508
20
-9.2391581
11
78.555094
21
5.4624496
0
LINE
8
0
6
CONTINUOUS
10
78.555094
20
5.4624496
11
62.9624798
21
13.4072833
0
LINE
8
0
6
CONTINUOUS
10
62.9624798
20
13.4072833
11
55.4716366
21
-1.2943244
0
LINE
8
0
6
CONTINUOUS
10
64.0974561
20
15.6347995
11
79.6900703
21
7.6899658
0
LINE
8
0
6
CONTINUOUS
10
79.6900703
20
7.6899658
11
87.1809135
21
22.3915735
0
LINE
8
0
6
CONTINUOUS
10
87.1809135
20
22.3915735
11
71.5882993
21
30.3364072
0
LINE
8
0
6
CONTINUOUS
10
71.5882993
20
30.3364072
11
64.0974561
21
15.6347995
0
LINE
8
0
6
CONTINUOUS
10
60.7834975
20
-33.4125268
11
75.6243392
21
-42.686114
0
LINE
8
0
6
CONTINUOUS
10
75.6243392
20
-42.686114
11
84.3680071
21
-28.6933204
0
LINE
8
0
6
CONTINUOUS
10
84.3680071
20
-28.6933204
11
69.5271654
21
-19.4197332
0
LINE
8
0
6
CONTINUOUS
10
69.5271654
20
-19.4197332
11
60.7834975
21
-33.4125268
0
LINE
8
0
6
CONTINUOUS
10
70.8519635
20
-17.2996129
11
85.6928052
21
-26.5732001
0
LINE
8
0
6
CONTINUOUS
10
85.6928052
20
-26.5732001
11
94.4364731
21
-12.5804065
0
LINE
8
0
6
CONTINUOUS
10
94.4364731
20
-12.5804065
11
79.5956314
21
-3.3068193
0
LINE
8
0
6
CONTINUOUS
10
79.5956314
20
-3.3068193
11
70.8519635
21
-17.2996129
0
LINE
8
0
6
CONTINUOUS
10
80.9204295
20
-1.1866991
11
95.7612712
21
-10.4602863
0
LINE
8
0
6
CONTINUOUS
10
95.7612712
20
-10.4602863
11
104.5049391
21
3.5325073
0
LINE
8
0
6
CONTINUOUS
10
104.5049391
20
3.5325073
11
89.6640974
21
12.8060945
0
LINE
8
0
6
CONTINUOUS
10
89.6640974
20
12.8060945
11
80.9204295
21
-1.1866991
0
LINE
8
0
6
CONTINUOUS
10
47.7828543
20
-56.219473
11
59.7178256
21
-69.0181628
0
LINE
8
0
6
CONTINUOUS
10
59.7178256
20
-69.0181628
11
71.7851617
21
-57.7651898
0
LINE
8
0
6
CONTINUOUS
10
71.7851617
20
-57.7651898
11
59.8501904
21
-44.9665
0
LINE
8
0
6
CONTINUOUS
10
59.8501904
20
-44.9665
11
47.7828543
21
-56.219473
0
LINE
8
0
6
CONTINUOUS
10
78.145246
20
-57.9872888
11
90.0802173
21
-70.7859786
0
LINE
8
0
6
CONTINUOUS
10
90.0802173
20
-70.7859786
11
102.1475534
21
-59.5330056
0
LINE
8
0
6
CONTINUOUS
10
102.1475534
20
-59.5330056
11
90.2125821
21
-46.7343158
0
LINE
8
0
6
CONTINUOUS
10
90.2125821
20
-46.7343158
11
78.145246
21
-57.9872888
0
LINE
8
0
6
CONTINUOUS
10
92.4672114
20
-73.3457165
11
104.4021827
21
-86.1444063
0
LINE
8
0
6
CONTINUOUS
10
104.4021827
20
-86.1444063
11
116.4695188
21
-74.8914333
0
LINE
8
0
6
CONTINUOUS
10
116.4695188
20
-74.8914333
11
104.5345475
21
-62.0927435
0
LINE
8
0
6
CONTINUOUS
10
104.5345475
20
-62.0927435
11
92.4672114
21
-73.3457165
0
LINE
8
0
6
CONTINUOUS
10
62.5669634
20
-73.5397679
11
89.8468978
21
-102.793916
0
LINE
8
0
6
CONTINUOUS
10
74.6342994
20
-62.286795
11
101.9142338
21
-91.5409431
0
LINE
8
0
6
CONTINUOUS
10
288.8349107
20
-10.2335547
11
305.7386127
21
-5.7042214
0
LINE
8
0
6
CONTINUOUS
10
305.7386127
20
-5.7042214
11
301.4680985
21
10.2335547
0
LINE
8
0
6
CONTINUOUS
10
301.4680985
20
10.2335547
11
284.5643965
21
5.7042214
0
LINE
8
0
6
CONTINUOUS
10
284.5643965
20
5.7042214
11
288.8349107
21
-10.2335547
0
LINE
8
0
6
CONTINUOUS
10
283.9173488
20
8.119036
11
300.8210508
21
12.6483693
0
LINE
8
0
6
CONTINUOUS
10
300.8210508
20
12.6483693
11
296.5505366
21
28.5861454
0
LINE
8
0
6
CONTINUOUS
10
296.5505366
20
28.5861454
11
279.6468346
21
24.0568121
0
LINE
8
0
6
CONTINUOUS
10
279.6468346
20
24.0568121
11
283.9173488
21
8.119036
0
LINE
8
0
6
CONTINUOUS
10
278.999787
20
26.4716267
11
295.903489
21
31.00096
0
LINE
8
0
6
CONTINUOUS
10
295.903489
20
31.00096
11
291.6329748
21
46.9387361
0
LINE
8
0
6
CONTINUOUS
10
291.6329748
20
46.9387361
11
274.7292728
21
42.4094028
0
LINE
8
0
6
CONTINUOUS
10
274.7292728
20
42.4094028
11
278.999787
21
26.4716267
0
LINE
8
0
6
CONTINUOUS
10
268.4401525
20
-11.3577372
11
284.8847733
21
-5.3723847
0
LINE
8
0
6
CONTINUOUS
10
284.8847733
20
-5.3723847
11
279.2414409
21
10.1325436
0
LINE
8
0
6
CONTINUOUS
10
279.2414409
20
10.1325436
11
262.7968201
21
4.1471911
0
LINE
8
0
6
CONTINUOUS
10
262.7968201
20
4.1471911
11
268.4401525
21
-11.3577372
0
LINE
8
0
6
CONTINUOUS
10
261.9417697
20
6.4964226
11
278.3863905
21
12.4817751
0
LINE
8
0
6
CONTINUOUS
10
278.3863905
20
12.4817751
11
272.7430581
21
27.9867034
0
LINE
8
0
6
CONTINUOUS
10
272.7430581
20
27.9867034
11
256.2984373
21
22.0013509
0
LINE
8
0
6
CONTINUOUS
10
256.2984373
20
22.0013509
11
261.9417697
21
6.4964226
0
LINE
8
0
6
CONTINUOUS
10
255.443387
20
24.3505825
11
271.8880078
21
30.335935
0
LINE
8
0
6
CONTINUOUS
10
271.8880078
20
30.335935
11
266.2446754
21
45.8408633
0
LINE
8
0
6
CONTINUOUS
10
266.2446754
20
45.8408633
11
249.8000546
21
39.8555108
0
LINE
8
0
6
CONTINUOUS
10
249.8000546
20
39.8555108
11
255.443387
21
24.3505825
0
LINE
8
0
6
CONTINUOUS
10
247.2884288
20
-10.8625332
11
263.5141462
21
-4.3069178
0
LINE
8
0
6
CONTINUOUS
10
263.5141462
20
-4.3069178
11
257.3331374
21
10.9916158
0
LINE
8
0
6
CONTINUOUS
10
257.3331374
20
10.9916158
11
241.10742
21
4.4360004
0
LINE
8
0
6
CONTINUOUS
10
241.10742
20
4.4360004
11
247.2884288
21
-10.8625332
0
LINE
8
0
6
CONTINUOUS
10
240.1709036
20
6.75396
11
256.396621
21
13.3095754
0
LINE
8
0
6
CONTINUOUS
10
256.396621
20
13.3095754
11
250.2156122
21
28.608109
0
LINE
8
0
6
CONTINUOUS
10
250.2156122
20
28.608109
11
233.9898948
21
22.0524936
0
LINE
8
0
6
CONTINUOUS
10
233.9898948
20
22.0524936
11
240.1709036
21
6.75396
0
LINE
8
0
6
CONTINUOUS
10
233.0533783
20
24.3704533
11
249.2790957
21
30.9260687
0
LINE
8
0
6
CONTINUOUS
10
249.2790957
20
30.9260687
11
243.0980869
21
46.2246023
0
LINE
8
0
6
CONTINUOUS
10
243.0980869
20
46.2246023
11
226.8723695
21
39.6689869
0
LINE
8
0
6
CONTINUOUS
10
226.8723695
20
39.6689869
11
233.0533783
21
24.3704533
0
LINE
8
0
6
CONTINUOUS
10
232.7130732
20
-26.1682821
11
248.3056874
21
-18.2234484
0
LINE
8
0
6
CONTINUOUS
10
248.3056874
20
-18.2234484
11
240.8148442
21
-3.5218407
0
LINE
8
0
6
CONTINUOUS
10
240.8148442
20
-3.5218407
11
225.22223
21
-11.4666744
0
LINE
8
0
6
CONTINUOUS
10
225.22223
20
-11.4666744
11
232.7130732
21
-26.1682821
0
LINE
8
0
6
CONTINUOUS
10
224.0872538
20
-9.2391581
11
239.679868
21
-1.2943244
0
LINE
8
0
6
CONTINUOUS
10
239.679868
20
-1.2943244
11
232.1890248
21
13.4072833
0
LINE
8
0
6
CONTINUOUS
10
232.1890248
20
13.4072833
11
216.5964106
21
5.4624496
0
LINE
8
0
6
CONTINUOUS
10
216.5964106
20
5.4624496
11
224.0872538
21
-9.2391581
0
LINE
8
0
6
CONTINUOUS
10
215.4614343
20
7.6899658
11
231.0540485
21
15.6347995
0
LINE
8
0
6
CONTINUOUS
10
231.0540485
20
15.6347995
11
223.5632053
21
30.3364072
0
LINE
8
0
6
CONTINUOUS
10
223.5632053
20
30.3364072
11
207.9705911
21
22.3915735
0
LINE
8
0
6
CONTINUOUS
10
207.9705911
20
22.3915735
11
215.4614343
21
7.6899658
0
LINE
8
0
6
CONTINUOUS
10
219.5271654
20
-42.686114
11
234.3680071
21
-33.4125268
0
LINE
8
0
6
CONTINUOUS
10
234.3680071
20
-33.4125268
11
225.6243392
21
-19.4197332
0
LINE
8
0
6
CONTINUOUS
10
225.6243392
20
-19.4197332
11
210.7834975
21
-28.6933204
0
LINE
8
0
6
CONTINUOUS
10
210.7834975
20
-28.6933204
11
219.5271654
21
-42.686114
0
LINE
8
0
6
CONTINUOUS
10
209.4586994
20
-26.5732001
11
224.2995411
21
-17.2996129
0
LINE
8
0
6
CONTINUOUS
10
224.2995411
20
-17.2996129
11
215.5558732
21
-3.3068193
0
LINE
8
0
6
CONTINUOUS
10
215.5558732
20
-3.3068193
11
200.7150315
21
-12.5804065
0
LINE
8
0
6
CONTINUOUS
10
200.7150315
20
-12.5804065
11
209.4586994
21
-26.5732001
0
LINE
8
0
6
CONTINUOUS
10
199.3902334
20
-10.4602863
11
214.2310751
21
-1.1866991
0
LINE
8
0
6
CONTINUOUS
10
214.2310751
20
-1.1866991
11
205.4874072
21
12.8060945
0
LINE
8
0
6
CONTINUOUS
10
205.4874072
20
12.8060945
11
190.6465655
21
3.5325073
0
LINE
8
0
6
CONTINUOUS
10
190.6465655
20
3.5325073
11
199.3902334
21
-10.4602863
0
LINE
8
0
6
CONTINUOUS
10
235.433679
20
-69.0181628
11
247.3686503
21
-56.219473
0
LINE
8
0
6
CONTINUOUS
10
247.3686503
20
-56.219473
11
235.3013142
21
-44.9665
0
LINE
8
0
6
CONTINUOUS
10
235.3013142
20
-44.9665
11
223.3663429
21
-57.7651898
0
LINE
8
0
6
CONTINUOUS
10
223.3663429
20
-57.7651898
11
235.433679
21
-69.0181628
0
LINE
8
0
6
CONTINUOUS
10
205.0712873
20
-70.7859786
11
217.0062586
21
-57.9872888
0
LINE
8
0
6
CONTINUOUS
10
217.0062586
20
-57.9872888
11
204.9389225
21
-46.7343158
0
LINE
8
0
6
CONTINUOUS
10
204.9389225
20
-46.7343158
11
193.0039512
21
-59.5330056
0
LINE
8
0
6
CONTINUOUS
10
193.0039512
20
-59.5330056
11
205.0712873
21
-70.7859786
0
LINE
8
0
6
CONTINUOUS
10
190.7493219
20
-86.1444063
11
202.6842932
21
-73.3457165
0
LINE
8
0
6
CONTINUOUS
10
202.6842932
20
-73.3457165
11
190.6169571
21
-62.0927435
0
LINE
8
0
6
CONTINUOUS
10
190.6169571
20
-62.0927435
11
178.6819858
21
-74.8914333
0
LINE
8
0
6
CONTINUOUS
10
178.6819858
20
-74.8914333
11
190.7493219
21
-86.1444063
0
LINE
8
0
6
CONTINUOUS
10
205.3046068
20
-102.793916
11
232.5845412
21
-73.5397679
0
LINE
8
0
6
CONTINUOUS
10
193.2372708
20
-91.5409431
11
220.5172052
21
-62.286795
0
LINE
8
0
6
CONTINUOUS
10
89.8468978
20
-102.793916
11
101.9142338
21
-91.5409431
0
LINE
8
0
6
CONTINUOUS
10
74.6342994
20
-62.286795
11
62.5669634
21
-73.5397679
0
LINE
8
0
6
CONTINUOUS
10
232.5845412
20
-73.5397679
11
220.5172052
21
-62.286795
0
LINE
8
0
6
CONTINUOUS
10
193.2372708
20
-91.5409431
11
205.3046068
21
-102.793916
0
ENDSEC
0
EOF