0
SECTION
2
HEADER
9
$INSUNITS
70
4
0
ENDSEC
0
SECTION
2
TABLES
0
TABLE
2
LTYPE
0
LTYPE
72
65
70
0
2
CONTINUOUS
3
______
73
0
40
0
0
LTYPE
72
65
70
0
2
DASHED
3
_ _ _ 
73
2
40
7.5
49
5
49
-2.5
0
LTYPE
72
65
70
0
2
DOTTED
3
. . . 
73
2
40
1.5
49
0.5
49
-1
0
ENDTAB
0
TABLE
2
LAYER
0
ENDTAB
0
ENDSEC
0
SECTION
2
ENTITIES
0
LINE
8
0
6
CONTINUOUS
10
257.5350046
20
-24.8420285
11
309.0274613
21
-8.8239826
0
LINE
8
0
6
CONTINUOUS
10
311.034132
20
-5.1829263
11
296.3645711
21
49.5646203
0
LINE
8
0
6
CONTINUOUS
10
293.299108
20
51.7834732
11
260.7979575
21
49.9639693
0
LINE
8
0
6
CONTINUOUS
10
260.7104163
20
49.9603499
11
233.5154951
21
49.233583
0
LINE
8
0
6
CONTINUOUS
10
231.650282
20
48.518419
11
212.7129948
21
32.3872562
0
LINE
8
0
6
CONTINUOUS
10
212.69202
20
32.369222
11
185.4021195
21
8.6854671
0
LINE
8
0
6
CONTINUOUS
10
184.8243076
20
4.8299781
11
205.2933185
21
-27.927287
0
LINE
8
0
6
CONTINUOUS
10
205.3425377
20
-31.0251781
11
194.913813
21
-48.9582564
0
LINE
8
0
6
CONTINUOUS
10
194.5720489
20
-49.4326218
11
173.5152837
21
-73.3475931
0
LINE
8
0
6
CONTINUOUS
10
173.6765463
20
-77.4819497
11
204.553129
21
-107.4757735
0
LINE
8
0
6
CONTINUOUS
10
208.8673744
20
-107.3374274
11
251.7576916
21
-59.9653902
0
LINE
8
0
6
CONTINUOUS
10
252.520409
20
-58.2348339
11
255.4394852
21
-27.4236723
0
ARC
8
0
6
CONTINUOUS
10
308.1363545
20
-5.9593833
40
3
50
287.2796412
51
14.9999979
0
ARC
8
0
6
CONTINUOUS
10
293.4667936
20
48.7881633
40
3
50
14.9999979
51
93.2042291
0
ARC
8
0
6
CONTINUOUS
10
260.6302719
20
52.9592792
40
3
50
271.5308274
51
273.2042291
0
ARC
8
0
6
CONTINUOUS
10
233.5956395
20
46.2346537
40
3
50
91.5308274
51
130.425029
0
ARC
8
0
6
CONTINUOUS
10
214.6583523
20
30.1034909
40
3
50
130.425029
51
130.9533322
0
ARC
8
0
6
CONTINUOUS
10
187.3684518
20
6.419736
40
3
50
130.9533322
51
212.0000016
0
ARC
8
0
6
CONTINUOUS
10
202.7491742
20
-29.5170448
40
3
50
329.8204729
51
32.0000016
0
ARC
8
0
6
CONTINUOUS
10
192.3204496
20
-47.4501231
40
3
50
318.636576
51
329.8204729
0
ARC
8
0
6
CONTINUOUS
10
175.7668829
20
-75.3300918
40
3
50
138.636576
51
225.8308586
0
ARC
8
0
6
CONTINUOUS
10
206.6434656
20
-105.3239155
40
3
50
225.8308586
51
317.8425224
0
ARC
8
0
6
CONTINUOUS
10
249.5337828
20
-57.9518784
40
3
50
317.8425224
51
354.5879035
0
ARC
8
0
6
CONTINUOUS
10
258.4261114
20
-27.7066278
40
3
50
107.2796412
51
174.5879035
0
ENDSEC
0
EOF