0
SECTION
2
HEADER
9
$INSUNITS
70
4
0
ENDSEC
0
SECTION
2
TABLES
0
TABLE
2
LTYPE
0
LTYPE
72
65
70
0
2
CONTINUOUS
3
______
73
0
40
0
0
LTYPE
72
65
70
0
2
DASHED
3
_ _ _ 
73
2
40
7.5
49
5
49
-2.5
0
LTYPE
72
65
70
0
2
DOTTED
3
. . . 
73
2
40
1.5
49
0.5
49
-1
0
ENDTAB
0
TABLE
2
LAYER
0
ENDTAB
0
ENDSEC
0
SECTION
2
ENTITIES
0
LINE
8
0
6
CONTINUOUS
10
37.6165
20
-24.8420285
11
-13.8759567
21
-8.8239826
0
LINE
8
0
6
CONTINUOUS
10
-15.8826274
20
-5.1829263
11
-1.2130665
21
49.5646203
0
LINE
8
0
6
CONTINUOUS
10
1.8523966
20
51.7834732
11
34.3535471
21
49.9639693
0
LINE
8
0
6
CONTINUOUS
10
34.4410883
20
49.9603499
11
61.6360095
21
49.233583
0
LINE
8
0
6
CONTINUOUS
10
63.5012226
20
48.518419
11
82.4385098
21
32.3872562
0
LINE
8
0
6
CONTINUOUS
10
82.4594846
20
32.369222
11
109.7493851
21
8.6854671
0
LINE
8
0
6
CONTINUOUS
10
110.327197
20
4.8299781
11
89.8581861
21
-27.927287
0
LINE
8
0
6
CONTINUOUS
10
89.8089669
20
-31.0251781
11
100.2376916
21
-48.9582564
0
LINE
8
0
6
CONTINUOUS
10
100.5794557
20
-49.4326218
11
121.6362209
21
-73.3475931
0
LINE
8
0
6
CONTINUOUS
10
121.4749583
20
-77.4819497
11
90.5983756
21
-107.4757735
0
LINE
8
0
6
CONTINUOUS
10
86.2841302
20
-107.3374274
11
43.393813
21
-59.9653902
0
LINE
8
0
6
CONTINUOUS
10
42.6310956
20
-58.2348339
11
39.7120194
21
-27.4236723
0
ARC
8
0
6
CONTINUOUS
10
-12.9848499
20
-5.9593833
40
3
50
165.0000021
51
252.7203588
0
ARC
8
0
6
CONTINUOUS
10
1.684711
20
48.7881633
40
3
50
86.7957709
51
165.0000021
0
ARC
8
0
6
CONTINUOUS
10
34.5212327
20
52.9592792
40
3
50
266.7957709
51
268.4691726
0
ARC
8
0
6
CONTINUOUS
10
61.5558651
20
46.2346537
40
3
50
49.574971
51
88.4691726
0
ARC
8
0
6
CONTINUOUS
10
80.4931523
20
30.1034909
40
3
50
49.0466678
51
49.574971
0
ARC
8
0
6
CONTINUOUS
10
107.7830528
20
6.419736
40
3
50
327.9999984
51
49.0466678
0
ARC
8
0
6
CONTINUOUS
10
92.4023304
20
-29.5170448
40
3
50
147.9999984
51
210.1795271
0
ARC
8
0
6
CONTINUOUS
10
102.831055
20
-47.4501231
40
3
50
210.1795271
51
221.363424
0
ARC
8
0
6
CONTINUOUS
10
119.3846217
20
-75.3300918
40
3
50
314.1691414
51
41.363424
0
ARC
8
0
6
CONTINUOUS
10
88.508039
20
-105.3239155
40
3
50
222.1574776
51
314.1691414
0
ARC
8
0
6
CONTINUOUS
10
45.6177218
20
-57.9518784
40
3
50
185.4120965
51
222.1574776
0
ARC
8
0
6
CONTINUOUS
10
36.7253932
20
-27.7066278
40
3
50
5.4120965
51
72.7203588
0
LINE
8
0
6
CONTINUOUS
10
-10.8932943
20
-5.8809981
11
6.4933706
21
-10.5397409
0
LINE
8
0
6
CONTINUOUS
10
6.4933706
20
-10.5397409
11
10.8932943
21
5.8809981
0
LINE
8
0
6
CONTINUOUS
10
10.8932943
20
5.8809981
11
-6.4933706
21
10.5397409
0
LINE
8
0
6
CONTINUOUS
10
-6.4933706
20
10.5397409
11
-10.8932943
21
-5.8809981
0
LINE
8
0
6
CONTINUOUS
10
-5.9757324
20
12.4715926
11
11.4109325
21
7.8128498
0
LINE
8
0
6
CONTINUOUS
10
11.4109325
20
7.8128498
11
15.8108562
21
24.2335888
0
LINE
8
0
6
CONTINUOUS
10
15.8108562
20
24.2335888
11
-1.5758087
21
28.8923316
0
LINE
8
0
6
CONTINUOUS
10
-1.5758087
20
28.8923316
11
-5.9757324
21
12.4715926
0
LINE
8
0
6
CONTINUOUS
10
-1.0581706
20
30.8241833
11
16.3284943
21
26.1654405
0
LINE
8
0
6
CONTINUOUS
10
16.3284943
20
26.1654405
11
20.728418
21
42.5861795
0
LINE
8
0
6
CONTINUOUS
10
20.728418
20
42.5861795
11
3.3417531
21
47.2449223
0
LINE
8
0
6
CONTINUOUS
10
3.3417531
20
47.2449223
11
-1.0581706
21
30.8241833
0
LINE
8
0
6
CONTINUOUS
10
9.9463031
20
-5.5218028
11
26.8607703
21
-11.6781654
0
LINE
8
0
6
CONTINUOUS
10
26.8607703
20
-11.6781654
11
32.6751127
21
4.2966092
0
LINE
8
0
6
CONTINUOUS
10
32.6751127
20
4.2966092
11
15.7606455
21
10.4529718
0
LINE
8
0
6
CONTINUOUS
10
15.7606455
20
10.4529718
11
9.9463031
21
-5.5218028
0
LINE
8
0
6
CONTINUOUS
10
16.4446859
20
12.332357
11
33.3591531
21
6.1759944
0
LINE
8
0
6
CONTINUOUS
10
33.3591531
20
6.1759944
11
39.1734955
21
22.150769
0
LINE
8
0
6
CONTINUOUS
10
39.1734955
20
22.150769
11
22.2590283
21
28.3071316
0
LINE
8
0
6
CONTINUOUS
10
22.2590283
20
28.3071316
11
16.4446859
21
12.332357
0
LINE
8
0
6
CONTINUOUS
10
22.9430686
20
30.1865169
11
39.8575358
21
24.0301543
0
LINE
8
0
6
CONTINUOUS
10
39.8575358
20
24.0301543
11
45.6718782
21
40.0049289
0
LINE
8
0
6
CONTINUOUS
10
45.6718782
20
40.0049289
11
28.757411
21
46.1612915
0
LINE
8
0
6
CONTINUOUS
10
28.757411
20
46.1612915
11
22.9430686
21
30.1865169
0
LINE
8
0
6
CONTINUOUS
10
31.3119108
20
-4.4450621
11
48.0012201
21
-11.1879808
0
LINE
8
0
6
CONTINUOUS
10
48.0012201
20
-11.1879808
11
54.3695322
21
4.5741447
0
LINE
8
0
6
CONTINUOUS
10
54.3695322
20
4.5741447
11
37.6802229
21
11.3170634
0
LINE
8
0
6
CONTINUOUS
10
37.6802229
20
11.3170634
11
31.3119108
21
-4.4450621
0
LINE
8
0
6
CONTINUOUS
10
38.429436
20
13.1714311
11
55.1187453
21
6.4285124
0
LINE
8
0
6
CONTINUOUS
10
55.1187453
20
6.4285124
11
61.4870574
21
22.1906379
0
LINE
8
0
6
CONTINUOUS
10
61.4870574
20
22.1906379
11
44.7977481
21
28.9335566
0
LINE
8
0
6
CONTINUOUS
10
44.7977481
20
28.9335566
11
38.429436
21
13.1714311
0
LINE
8
0
6
CONTINUOUS
10
45.5469613
20
30.7879244
11
62.2362706
21
24.0450057
0
LINE
8
0
6
CONTINUOUS
10
62.2362706
20
24.0450057
11
68.6045827
21
39.8071312
0
LINE
8
0
6
CONTINUOUS
10
68.6045827
20
39.8071312
11
51.9152734
21
46.5500499
0
LINE
8
0
6
CONTINUOUS
10
51.9152734
20
46.5500499
11
45.5469613
21
30.7879244
0
LINE
8
0
6
CONTINUOUS
10
46.5095679
20
-18.3327024
11
62.5476854
21
-26.5045314
0
LINE
8
0
6
CONTINUOUS
10
62.5476854
20
-26.5045314
11
70.2655239
21
-11.3574204
0
LINE
8
0
6
CONTINUOUS
10
70.2655239
20
-11.3574204
11
54.2274064
21
-3.1855914
0
LINE
8
0
6
CONTINUOUS
10
54.2274064
20
-3.1855914
11
46.5095679
21
-18.3327024
0
LINE
8
0
6
CONTINUOUS
10
55.1353873
20
-1.4035784
11
71.1735048
21
-9.5754074
0
LINE
8
0
6
CONTINUOUS
10
71.1735048
20
-9.5754074
11
78.8913433
21
5.5717036
0
LINE
8
0
6
CONTINUOUS
10
78.8913433
20
5.5717036
11
62.8532258
21
13.7435326
0
LINE
8
0
6
CONTINUOUS
10
62.8532258
20
13.7435326
11
55.1353873
21
-1.4035784
0
LINE
8
0
6
CONTINUOUS
10
63.7612068
20
15.5255455
11
79.7993243
21
7.3537165
0
LINE
8
0
6
CONTINUOUS
10
79.7993243
20
7.3537165
11
87.5171628
21
22.5008275
0
LINE
8
0
6
CONTINUOUS
10
87.5171628
20
22.5008275
11
71.4790453
21
30.6726565
0
LINE
8
0
6
CONTINUOUS
10
71.4790453
20
30.6726565
11
63.7612068
21
15.5255455
0
LINE
8
0
6
CONTINUOUS
10
60.4390057
20
-33.492059
11
75.7038714
21
-43.0306058
0
LINE
8
0
6
CONTINUOUS
10
75.7038714
20
-43.0306058
11
84.7124989
21
-28.6137882
0
LINE
8
0
6
CONTINUOUS
10
84.7124989
20
-28.6137882
11
69.4476332
21
-19.0752414
0
LINE
8
0
6
CONTINUOUS
10
69.4476332
20
-19.0752414
11
60.4390057
21
-33.492059
0
LINE
8
0
6
CONTINUOUS
10
70.5074717
20
-17.3791451
11
85.7723374
21
-26.9176919
0
LINE
8
0
6
CONTINUOUS
10
85.7723374
20
-26.9176919
11
94.7809649
21
-12.5008743
0
LINE
8
0
6
CONTINUOUS
10
94.7809649
20
-12.5008743
11
79.5160992
21
-2.9623275
0
LINE
8
0
6
CONTINUOUS
10
79.5160992
20
-2.9623275
11
70.5074717
21
-17.3791451
0
LINE
8
0
6
CONTINUOUS
10
80.5759377
20
-1.2662313
11
95.8408034
21
-10.8047781
0
LINE
8
0
6
CONTINUOUS
10
95.8408034
20
-10.8047781
11
104.8494309
21
3.6120395
0
LINE
8
0
6
CONTINUOUS
10
104.8494309
20
3.6120395
11
89.5845652
21
13.1505863
0
LINE
8
0
6
CONTINUOUS
10
89.5845652
20
13.1505863
11
80.5759377
21
-1.2662313
0
LINE
8
0
6
CONTINUOUS
10
47.4295163
20
-56.2071341
11
59.7054868
21
-69.3715008
0
LINE
8
0
6
CONTINUOUS
10
59.7054868
20
-69.3715008
11
72.1384997
21
-57.7775287
0
LINE
8
0
6
CONTINUOUS
10
72.1384997
20
-57.7775287
11
59.8625292
21
-44.613162
0
LINE
8
0
6
CONTINUOUS
10
59.8625292
20
-44.613162
11
47.4295163
21
-56.2071341
0
LINE
8
0
6
CONTINUOUS
10
77.791908
20
-57.9749499
11
90.0678785
21
-71.1393166
0
LINE
8
0
6
CONTINUOUS
10
90.0678785
20
-71.1393166
11
102.5008914
21
-59.5453445
0
LINE
8
0
6
CONTINUOUS
10
102.5008914
20
-59.5453445
11
90.2249209
21
-46.3809778
0
LINE
8
0
6
CONTINUOUS
10
90.2249209
20
-46.3809778
11
77.791908
21
-57.9749499
0
LINE
8
0
6
CONTINUOUS
10
92.1138734
20
-73.3333776
11
104.3898439
21
-86.4977443
0
LINE
8
0
6
CONTINUOUS
10
104.3898439
20
-86.4977443
11
116.8228568
21
-74.9037722
0
LINE
8
0
6
CONTINUOUS
10
116.8228568
20
-74.9037722
11
104.5468863
21
-61.7394055
0
LINE
8
0
6
CONTINUOUS
10
104.5468863
20
-61.7394055
11
92.1138734
21
-73.3333776
0
LINE
8
0
6
CONTINUOUS
10
61.8479485
20
-73.8684283
11
89.4688821
21
-103.4882532
0
LINE
8
0
6
CONTINUOUS
10
89.4688821
20
-103.4882532
11
102.6332487
21
-91.2122827
0
LINE
8
0
6
CONTINUOUS
10
102.6332487
20
-91.2122827
11
75.0123151
21
-61.5924578
0
LINE
8
0
6
CONTINUOUS
10
75.0123151
20
-61.5924578
11
61.8479485
21
-73.8684283
0
ENDSEC
0
EOF