0
SECTION
2
HEADER
9
$INSUNITS
70
4
0
ENDSEC
0
SECTION
2
TABLES
0
TABLE
2
LTYPE
0
LTYPE
72
65
70
0
2
CONTINUOUS
3
______
73
0
40
0
0
LTYPE
72
65
70
0
2
DASHED
3
_ _ _ 
73
2
40
7.5
49
5
49
-2.5
0
LTYPE
72
65
70
0
2
DOTTED
3
. . . 
73
2
40
1.5
49
0.5
49
-1
0
ENDTAB
0
TABLE
2
LAYER
0
ENDTAB
0
ENDSEC
0
SECTION
2
ENTITIES
0
LINE
8
0
6
CONTINUOUS
10
257.5350046
20
-24.8420285
11
309.0274613
21
-8.8239826
0
LINE
8
0
6
CONTINUOUS
10
311.034132
20
-5.1829263
11
296.3645711
21
49.5646203
0
LINE
8
0
6
CONTINUOUS
10
293.299108
20
51.7834732
11
260.7979575
21
49.9639693
0
LINE
8
0
6
CONTINUOUS
10
260.7104163
20
49.9603499
11
233.5154951
21
49.233583
0
LINE
8
0
6
CONTINUOUS
10
231.650282
20
48.518419
11
212.7129948
21
32.3872562
0
LINE
8
0
6
CONTINUOUS
10
212.69202
20
32.369222
11
185.4021195
21
8.6854671
0
LINE
8
0
6
CONTINUOUS
10
184.8243076
20
4.8299781
11
205.2933185
21
-27.927287
0
LINE
8
0
6
CONTINUOUS
10
205.3425377
20
-31.0251781
11
194.913813
21
-48.9582564
0
LINE
8
0
6
CONTINUOUS
10
194.5720489
20
-49.4326218
11
173.5152837
21
-73.3475931
0
LINE
8
0
6
CONTINUOUS
10
173.6765463
20
-77.4819497
11
204.553129
21
-107.4757735
0
LINE
8
0
6
CONTINUOUS
10
208.8673744
20
-107.3374274
11
251.7576916
21
-59.9653902
0
LINE
8
0
6
CONTINUOUS
10
252.520409
20
-58.2348339
11
255.4394852
21
-27.4236723
0
ARC
8
0
6
CONTINUOUS
10
308.1363545
20
-5.9593833
40
3
50
287.2796412
51
14.9999979
0
ARC
8
0
6
CONTINUOUS
10
293.4667936
20
48.7881633
40
3
50
14.9999979
51
93.2042291
0
ARC
8
0
6
CONTINUOUS
10
260.6302719
20
52.9592792
40
3
50
271.5308274
51
273.2042291
0
ARC
8
0
6
CONTINUOUS
10
233.5956395
20
46.2346537
40
3
50
91.5308274
51
130.425029
0
ARC
8
0
6
CONTINUOUS
10
214.6583523
20
30.1034909
40
3
50
130.425029
51
130.9533322
0
ARC
8
0
6
CONTINUOUS
10
187.3684518
20
6.419736
40
3
50
130.9533322
51
212.0000016
0
ARC
8
0
6
CONTINUOUS
10
202.7491742
20
-29.5170448
40
3
50
329.8204729
51
32.0000016
0
ARC
8
0
6
CONTINUOUS
10
192.3204496
20
-47.4501231
40
3
50
318.636576
51
329.8204729
0
ARC
8
0
6
CONTINUOUS
10
175.7668829
20
-75.3300918
40
3
50
138.636576
51
225.8308586
0
ARC
8
0
6
CONTINUOUS
10
206.6434656
20
-105.3239155
40
3
50
225.8308586
51
317.8425224
0
ARC
8
0
6
CONTINUOUS
10
249.5337828
20
-57.9518784
40
3
50
317.8425224
51
354.5879035
0
ARC
8
0
6
CONTINUOUS
10
258.4261114
20
-27.7066278
40
3
50
107.2796412
51
174.5879035
0
LINE
8
0
6
CONTINUOUS
10
288.658134
20
-10.5397409
11
306.0447989
21
-5.8809981
0
LINE
8
0
6
CONTINUOUS
10
306.0447989
20
-5.8809981
11
301.6448752
21
10.5397409
0
LINE
8
0
6
CONTINUOUS
10
301.6448752
20
10.5397409
11
284.2582103
21
5.8809981
0
LINE
8
0
6
CONTINUOUS
10
284.2582103
20
5.8809981
11
288.658134
21
-10.5397409
0
LINE
8
0
6
CONTINUOUS
10
283.7405721
20
7.8128498
11
301.127237
21
12.4715926
0
LINE
8
0
6
CONTINUOUS
10
301.127237
20
12.4715926
11
296.7273133
21
28.8923316
0
LINE
8
0
6
CONTINUOUS
10
296.7273133
20
28.8923316
11
279.3406484
21
24.2335888
0
LINE
8
0
6
CONTINUOUS
10
279.3406484
20
24.2335888
11
283.7405721
21
7.8128498
0
LINE
8
0
6
CONTINUOUS
10
278.8230103
20
26.1654405
11
296.2096752
21
30.8241833
0
LINE
8
0
6
CONTINUOUS
10
296.2096752
20
30.8241833
11
291.8097515
21
47.2449223
0
LINE
8
0
6
CONTINUOUS
10
291.8097515
20
47.2449223
11
274.4230866
21
42.5861795
0
LINE
8
0
6
CONTINUOUS
10
274.4230866
20
42.5861795
11
278.8230103
21
26.1654405
0
LINE
8
0
6
CONTINUOUS
10
268.2907343
20
-11.6781654
11
285.2052015
21
-5.5218028
0
LINE
8
0
6
CONTINUOUS
10
285.2052015
20
-5.5218028
11
279.3908591
21
10.4529718
0
LINE
8
0
6
CONTINUOUS
10
279.3908591
20
10.4529718
11
262.4763919
21
4.2966092
0
LINE
8
0
6
CONTINUOUS
10
262.4763919
20
4.2966092
11
268.2907343
21
-11.6781654
0
LINE
8
0
6
CONTINUOUS
10
261.7923515
20
6.1759944
11
278.7068187
21
12.332357
0
LINE
8
0
6
CONTINUOUS
10
278.7068187
20
12.332357
11
272.8924763
21
28.3071316
0
LINE
8
0
6
CONTINUOUS
10
272.8924763
20
28.3071316
11
255.9780091
21
22.150769
0
LINE
8
0
6
CONTINUOUS
10
255.9780091
20
22.150769
11
261.7923515
21
6.1759944
0
LINE
8
0
6
CONTINUOUS
10
255.2939688
20
24.0301543
11
272.208436
21
30.1865169
0
LINE
8
0
6
CONTINUOUS
10
272.208436
20
30.1865169
11
266.3940936
21
46.1612915
0
LINE
8
0
6
CONTINUOUS
10
266.3940936
20
46.1612915
11
249.4796264
21
40.0049289
0
LINE
8
0
6
CONTINUOUS
10
249.4796264
20
40.0049289
11
255.2939688
21
24.0301543
0
LINE
8
0
6
CONTINUOUS
10
247.1502845
20
-11.1879808
11
263.8395938
21
-4.4450621
0
LINE
8
0
6
CONTINUOUS
10
263.8395938
20
-4.4450621
11
257.4712817
21
11.3170634
0
LINE
8
0
6
CONTINUOUS
10
257.4712817
20
11.3170634
11
240.7819724
21
4.5741447
0
LINE
8
0
6
CONTINUOUS
10
240.7819724
20
4.5741447
11
247.1502845
21
-11.1879808
0
LINE
8
0
6
CONTINUOUS
10
240.0327593
20
6.4285124
11
256.7220686
21
13.1714311
0
LINE
8
0
6
CONTINUOUS
10
256.7220686
20
13.1714311
11
250.3537565
21
28.9335566
0
LINE
8
0
6
CONTINUOUS
10
250.3537565
20
28.9335566
11
233.6644472
21
22.1906379
0
LINE
8
0
6
CONTINUOUS
10
233.6644472
20
22.1906379
11
240.0327593
21
6.4285124
0
LINE
8
0
6
CONTINUOUS
10
232.915234
20
24.0450057
11
249.6045433
21
30.7879244
0
LINE
8
0
6
CONTINUOUS
10
249.6045433
20
30.7879244
11
243.2362312
21
46.5500499
0
LINE
8
0
6
CONTINUOUS
10
243.2362312
20
46.5500499
11
226.5469219
21
39.8071312
0
LINE
8
0
6
CONTINUOUS
10
226.5469219
20
39.8071312
11
232.915234
21
24.0450057
0
LINE
8
0
6
CONTINUOUS
10
232.6038192
20
-26.5045314
11
248.6419367
21
-18.3327024
0
LINE
8
0
6
CONTINUOUS
10
248.6419367
20
-18.3327024
11
240.9240982
21
-3.1855914
0
LINE
8
0
6
CONTINUOUS
10
240.9240982
20
-3.1855914
11
224.8859807
21
-11.3574204
0
LINE
8
0
6
CONTINUOUS
10
224.8859807
20
-11.3574204
11
232.6038192
21
-26.5045314
0
LINE
8
0
6
CONTINUOUS
10
223.9779998
20
-9.5754074
11
240.0161173
21
-1.4035784
0
LINE
8
0
6
CONTINUOUS
10
240.0161173
20
-1.4035784
11
232.2982788
21
13.7435326
0
LINE
8
0
6
CONTINUOUS
10
232.2982788
20
13.7435326
11
216.2601613
21
5.5717036
0
LINE
8
0
6
CONTINUOUS
10
216.2601613
20
5.5717036
11
223.9779998
21
-9.5754074
0
LINE
8
0
6
CONTINUOUS
10
215.3521803
20
7.3537165
11
231.3902978
21
15.5255455
0
LINE
8
0
6
CONTINUOUS
10
231.3902978
20
15.5255455
11
223.6724593
21
30.6726565
0
LINE
8
0
6
CONTINUOUS
10
223.6724593
20
30.6726565
11
207.6343418
21
22.5008275
0
LINE
8
0
6
CONTINUOUS
10
207.6343418
20
22.5008275
11
215.3521803
21
7.3537165
0
LINE
8
0
6
CONTINUOUS
10
219.4476332
20
-43.0306058
11
234.7124989
21
-33.492059
0
LINE
8
0
6
CONTINUOUS
10
234.7124989
20
-33.492059
11
225.7038714
21
-19.0752414
0
LINE
8
0
6
CONTINUOUS
10
225.7038714
20
-19.0752414
11
210.4390057
21
-28.6137882
0
LINE
8
0
6
CONTINUOUS
10
210.4390057
20
-28.6137882
11
219.4476332
21
-43.0306058
0
LINE
8
0
6
CONTINUOUS
10
209.3791672
20
-26.9176919
11
224.6440329
21
-17.3791451
0
LINE
8
0
6
CONTINUOUS
10
224.6440329
20
-17.3791451
11
215.6354054
21
-2.9623275
0
LINE
8
0
6
CONTINUOUS
10
215.6354054
20
-2.9623275
11
200.3705397
21
-12.5008743
0
LINE
8
0
6
CONTINUOUS
10
200.3705397
20
-12.5008743
11
209.3791672
21
-26.9176919
0
LINE
8
0
6
CONTINUOUS
10
199.3107012
20
-10.8047781
11
214.5755669
21
-1.2662313
0
LINE
8
0
6
CONTINUOUS
10
214.5755669
20
-1.2662313
11
205.5669394
21
13.1505863
0
LINE
8
0
6
CONTINUOUS
10
205.5669394
20
13.1505863
11
190.3020737
21
3.6120395
0
LINE
8
0
6
CONTINUOUS
10
190.3020737
20
3.6120395
11
199.3107012
21
-10.8047781
0
LINE
8
0
6
CONTINUOUS
10
235.4460178
20
-69.3715008
11
247.7219883
21
-56.2071341
0
LINE
8
0
6
CONTINUOUS
10
247.7219883
20
-56.2071341
11
235.2889754
21
-44.613162
0
LINE
8
0
6
CONTINUOUS
10
235.2889754
20
-44.613162
11
223.0130049
21
-57.7775287
0
LINE
8
0
6
CONTINUOUS
10
223.0130049
20
-57.7775287
11
235.4460178
21
-69.3715008
0
LINE
8
0
6
CONTINUOUS
10
205.0836261
20
-71.1393166
11
217.3595966
21
-57.9749499
0
LINE
8
0
6
CONTINUOUS
10
217.3595966
20
-57.9749499
11
204.9265837
21
-46.3809778
0
LINE
8
0
6
CONTINUOUS
10
204.9265837
20
-46.3809778
11
192.6506132
21
-59.5453445
0
LINE
8
0
6
CONTINUOUS
10
192.6506132
20
-59.5453445
11
205.0836261
21
-71.1393166
0
LINE
8
0
6
CONTINUOUS
10
190.7616607
20
-86.4977443
11
203.0376312
21
-73.3333776
0
LINE
8
0
6
CONTINUOUS
10
203.0376312
20
-73.3333776
11
190.6046183
21
-61.7394055
0
LINE
8
0
6
CONTINUOUS
10
190.6046183
20
-61.7394055
11
178.3286478
21
-74.9037722
0
LINE
8
0
6
CONTINUOUS
10
178.3286478
20
-74.9037722
11
190.7616607
21
-86.4977443
0
LINE
8
0
6
CONTINUOUS
10
205.6826225
20
-103.4882532
11
233.3035561
21
-73.8684283
0
LINE
8
0
6
CONTINUOUS
10
233.3035561
20
-73.8684283
11
220.1391895
21
-61.5924578
0
LINE
8
0
6
CONTINUOUS
10
220.1391895
20
-61.5924578
11
192.5182559
21
-91.2122827
0
LINE
8
0
6
CONTINUOUS
10
192.5182559
20
-91.2122827
11
205.6826225
21
-103.4882532
0
ENDSEC
0
EOF