0
SECTION
2
HEADER
9
$INSUNITS
70
4
0
ENDSEC
0
SECTION
2
TABLES
0
TABLE
2
LTYPE
0
LTYPE
72
65
70
0
2
CONTINUOUS
3
______
73
0
40
0
0
LTYPE
72
65
70
0
2
DASHED
3
_ _ _ 
73
2
40
7.5
49
5
49
-2.5
0
LTYPE
72
65
70
0
2
DOTTED
3
. . . 
73
2
40
1.5
49
0.5
49
-1
0
ENDTAB
0
TABLE
2
LAYER
0
ENDTAB
0
ENDSEC
0
SECTION
2
ENTITIES
0
LINE
8
0
6
CONTINUOUS
10
-10.8932943
20
-5.8809981
11
6.4933706
21
-10.5397409
0
LINE
8
0
6
CONTINUOUS
10
6.4933706
20
-10.5397409
11
10.8932943
21
5.8809981
0
LINE
8
0
6
CONTINUOUS
10
10.8932943
20
5.8809981
11
-6.4933706
21
10.5397409
0
LINE
8
0
6
CONTINUOUS
10
-6.4933706
20
10.5397409
11
-10.8932943
21
-5.8809981
0
LINE
8
0
6
CONTINUOUS
10
-5.9757324
20
12.4715926
11
11.4109325
21
7.8128498
0
LINE
8
0
6
CONTINUOUS
10
11.4109325
20
7.8128498
11
15.8108562
21
24.2335888
0
LINE
8
0
6
CONTINUOUS
10
15.8108562
20
24.2335888
11
-1.5758087
21
28.8923316
0
LINE
8
0
6
CONTINUOUS
10
-1.5758087
20
28.8923316
11
-5.9757324
21
12.4715926
0
LINE
8
0
6
CONTINUOUS
10
-1.0581706
20
30.8241833
11
16.3284943
21
26.1654405
0
LINE
8
0
6
CONTINUOUS
10
16.3284943
20
26.1654405
11
20.728418
21
42.5861795
0
LINE
8
0
6
CONTINUOUS
10
20.728418
20
42.5861795
11
3.3417531
21
47.2449223
0
LINE
8
0
6
CONTINUOUS
10
3.3417531
20
47.2449223
11
-1.0581706
21
30.8241833
0
LINE
8
0
6
CONTINUOUS
10
9.9463031
20
-5.5218028
11
26.8607703
21
-11.6781654
0
LINE
8
0
6
CONTINUOUS
10
26.8607703
20
-11.6781654
11
32.6751127
21
4.2966092
0
LINE
8
0
6
CONTINUOUS
10
32.6751127
20
4.2966092
11
15.7606455
21
10.4529718
0
LINE
8
0
6
CONTINUOUS
10
15.7606455
20
10.4529718
11
9.9463031
21
-5.5218028
0
LINE
8
0
6
CONTINUOUS
10
16.4446859
20
12.332357
11
33.3591531
21
6.1759944
0
LINE
8
0
6
CONTINUOUS
10
33.3591531
20
6.1759944
11
39.1734955
21
22.150769
0
LINE
8
0
6
CONTINUOUS
10
39.1734955
20
22.150769
11
22.2590283
21
28.3071316
0
LINE
8
0
6
CONTINUOUS
10
22.2590283
20
28.3071316
11
16.4446859
21
12.332357
0
LINE
8
0
6
CONTINUOUS
10
22.9430686
20
30.1865169
11
39.8575358
21
24.0301543
0
LINE
8
0
6
CONTINUOUS
10
39.8575358
20
24.0301543
11
45.6718782
21
40.0049289
0
LINE
8
0
6
CONTINUOUS
10
45.6718782
20
40.0049289
11
28.757411
21
46.1612915
0
LINE
8
0
6
CONTINUOUS
10
28.757411
20
46.1612915
11
22.9430686
21
30.1865169
0
LINE
8
0
6
CONTINUOUS
10
31.3119108
20
-4.4450621
11
48.0012201
21
-11.1879808
0
LINE
8
0
6
CONTINUOUS
10
48.0012201
20
-11.1879808
11
54.3695322
21
4.5741447
0
LINE
8
0
6
CONTINUOUS
10
54.3695322
20
4.5741447
11
37.6802229
21
11.3170634
0
LINE
8
0
6
CONTINUOUS
10
37.6802229
20
11.3170634
11
31.3119108
21
-4.4450621
0
LINE
8
0
6
CONTINUOUS
10
38.429436
20
13.1714311
11
55.1187453
21
6.4285124
0
LINE
8
0
6
CONTINUOUS
10
55.1187453
20
6.4285124
11
61.4870574
21
22.1906379
0
LINE
8
0
6
CONTINUOUS
10
61.4870574
20
22.1906379
11
44.7977481
21
28.9335566
0
LINE
8
0
6
CONTINUOUS
10
44.7977481
20
28.9335566
11
38.429436
21
13.1714311
0
LINE
8
0
6
CONTINUOUS
10
45.5469613
20
30.7879244
11
62.2362706
21
24.0450057
0
LINE
8
0
6
CONTINUOUS
10
62.2362706
20
24.0450057
11
68.6045827
21
39.8071312
0
LINE
8
0
6
CONTINUOUS
10
68.6045827
20
39.8071312
11
51.9152734
21
46.5500499
0
LINE
8
0
6
CONTINUOUS
10
51.9152734
20
46.5500499
11
45.5469613
21
30.7879244
0
LINE
8
0
6
CONTINUOUS
10
46.5095679
20
-18.3327024
11
62.5476854
21
-26.5045314
0
LINE
8
0
6
CONTINUOUS
10
62.5476854
20
-26.5045314
11
70.2655239
21
-11.3574204
0
LINE
8
0
6
CONTINUOUS
10
70.2655239
20
-11.3574204
11
54.2274064
21
-3.1855914
0
LINE
8
0
6
CONTINUOUS
10
54.2274064
20
-3.1855914
11
46.5095679
21
-18.3327024
0
LINE
8
0
6
CONTINUOUS
10
55.1353873
20
-1.4035784
11
71.1735048
21
-9.5754074
0
LINE
8
0
6
CONTINUOUS
10
71.1735048
20
-9.5754074
11
78.8913433
21
5.5717036
0
LINE
8
0
6
CONTINUOUS
10
78.8913433
20
5.5717036
11
62.8532258
21
13.7435326
0
LINE
8
0
6
CONTINUOUS
10
62.8532258
20
13.7435326
11
55.1353873
21
-1.4035784
0
LINE
8
0
6
CONTINUOUS
10
63.7612068
20
15.5255455
11
79.7993243
21
7.3537165
0
LINE
8
0
6
CONTINUOUS
10
79.7993243
20
7.3537165
11
87.5171628
21
22.5008275
0
LINE
8
0
6
CONTINUOUS
10
87.5171628
20
22.5008275
11
71.4790453
21
30.6726565
0
LINE
8
0
6
CONTINUOUS
10
71.4790453
20
30.6726565
11
63.7612068
21
15.5255455
0
LINE
8
0
6
CONTINUOUS
10
60.4390057
20
-33.492059
11
75.7038714
21
-43.0306058
0
LINE
8
0
6
CONTINUOUS
10
75.7038714
20
-43.0306058
11
84.7124989
21
-28.6137882
0
LINE
8
0
6
CONTINUOUS
10
84.7124989
20
-28.6137882
11
69.4476332
21
-19.0752414
0
LINE
8
0
6
CONTINUOUS
10
69.4476332
20
-19.0752414
11
60.4390057
21
-33.492059
0
LINE
8
0
6
CONTINUOUS
10
70.5074717
20
-17.3791451
11
85.7723374
21
-26.9176919
0
LINE
8
0
6
CONTINUOUS
10
85.7723374
20
-26.9176919
11
94.7809649
21
-12.5008743
0
LINE
8
0
6
CONTINUOUS
10
94.7809649
20
-12.5008743
11
79.5160992
21
-2.9623275
0
LINE
8
0
6
CONTINUOUS
10
79.5160992
20
-2.9623275
11
70.5074717
21
-17.3791451
0
LINE
8
0
6
CONTINUOUS
10
80.5759377
20
-1.2662313
11
95.8408034
21
-10.8047781
0
LINE
8
0
6
CONTINUOUS
10
95.8408034
20
-10.8047781
11
104.8494309
21
3.6120395
0
LINE
8
0
6
CONTINUOUS
10
104.8494309
20
3.6120395
11
89.5845652
21
13.1505863
0
LINE
8
0
6
CONTINUOUS
10
89.5845652
20
13.1505863
11
80.5759377
21
-1.2662313
0
LINE
8
0
6
CONTINUOUS
10
47.4295163
20
-56.2071341
11
59.7054868
21
-69.3715008
0
LINE
8
0
6
CONTINUOUS
10
59.7054868
20
-69.3715008
11
72.1384997
21
-57.7775287
0
LINE
8
0
6
CONTINUOUS
10
72.1384997
20
-57.7775287
11
59.8625292
21
-44.613162
0
LINE
8
0
6
CONTINUOUS
10
59.8625292
20
-44.613162
11
47.4295163
21
-56.2071341
0
LINE
8
0
6
CONTINUOUS
10
77.791908
20
-57.9749499
11
90.0678785
21
-71.1393166
0
LINE
8
0
6
CONTINUOUS
10
90.0678785
20
-71.1393166
11
102.5008914
21
-59.5453445
0
LINE
8
0
6
CONTINUOUS
10
102.5008914
20
-59.5453445
11
90.2249209
21
-46.3809778
0
LINE
8
0
6
CONTINUOUS
10
90.2249209
20
-46.3809778
11
77.791908
21
-57.9749499
0
LINE
8
0
6
CONTINUOUS
10
92.1138734
20
-73.3333776
11
104.3898439
21
-86.4977443
0
LINE
8
0
6
CONTINUOUS
10
104.3898439
20
-86.4977443
11
116.8228568
21
-74.9037722
0
LINE
8
0
6
CONTINUOUS
10
116.8228568
20
-74.9037722
11
104.5468863
21
-61.7394055
0
LINE
8
0
6
CONTINUOUS
10
104.5468863
20
-61.7394055
11
92.1138734
21
-73.3333776
0
LINE
8
0
6
CONTINUOUS
10
288.658134
20
-10.5397409
11
306.0447989
21
-5.8809981
0
LINE
8
0
6
CONTINUOUS
10
306.0447989
20
-5.8809981
11
301.6448752
21
10.5397409
0
LINE
8
0
6
CONTINUOUS
10
301.6448752
20
10.5397409
11
284.2582103
21
5.8809981
0
LINE
8
0
6
CONTINUOUS
10
284.2582103
20
5.8809981
11
288.658134
21
-10.5397409
0
LINE
8
0
6
CONTINUOUS
10
283.7405721
20
7.8128498
11
301.127237
21
12.4715926
0
LINE
8
0
6
CONTINUOUS
10
301.127237
20
12.4715926
11
296.7273133
21
28.8923316
0
LINE
8
0
6
CONTINUOUS
10
296.7273133
20
28.8923316
11
279.3406484
21
24.2335888
0
LINE
8
0
6
CONTINUOUS
10
279.3406484
20
24.2335888
11
283.7405721
21
7.8128498
0
LINE
8
0
6
CONTINUOUS
10
278.8230103
20
26.1654405
11
296.2096752
21
30.8241833
0
LINE
8
0
6
CONTINUOUS
10
296.2096752
20
30.8241833
11
291.8097515
21
47.2449223
0
LINE
8
0
6
CONTINUOUS
10
291.8097515
20
47.2449223
11
274.4230866
21
42.5861795
0
LINE
8
0
6
CONTINUOUS
10
274.4230866
20
42.5861795
11
278.8230103
21
26.1654405
0
LINE
8
0
6
CONTINUOUS
10
268.2907343
20
-11.6781654
11
285.2052015
21
-5.5218028
0
LINE
8
0
6
CONTINUOUS
10
285.2052015
20
-5.5218028
11
279.3908591
21
10.4529718
0
LINE
8
0
6
CONTINUOUS
10
279.3908591
20
10.4529718
11
262.4763919
21
4.2966092
0
LINE
8
0
6
CONTINUOUS
10
262.4763919
20
4.2966092
11
268.2907343
21
-11.6781654
0
LINE
8
0
6
CONTINUOUS
10
261.7923515
20
6.1759944
11
278.7068187
21
12.332357
0
LINE
8
0
6
CONTINUOUS
10
278.7068187
20
12.332357
11
272.8924763
21
28.3071316
0
LINE
8
0
6
CONTINUOUS
10
272.8924763
20
28.3071316
11
255.9780091
21
22.150769
0
LINE
8
0
6
CONTINUOUS
10
255.9780091
20
22.150769
11
261.7923515
21
6.1759944
0
LINE
8
0
6
CONTINUOUS
10
255.2939688
20
24.0301543
11
272.208436
21
30.1865169
0
LINE
8
0
6
CONTINUOUS
10
272.208436
20
30.1865169
11
266.3940936
21
46.1612915
0
LINE
8
0
6
CONTINUOUS
10
266.3940936
20
46.1612915
11
249.4796264
21
40.0049289
0
LINE
8
0
6
CONTINUOUS
10
249.4796264
20
40.0049289
11
255.2939688
21
24.0301543
0
LINE
8
0
6
CONTINUOUS
10
247.1502845
20
-11.1879808
11
263.8395938
21
-4.4450621
0
LINE
8
0
6
CONTINUOUS
10
263.8395938
20
-4.4450621
11
257.4712817
21
11.3170634
0
LINE
8
0
6
CONTINUOUS
10
257.4712817
20
11.3170634
11
240.7819724
21
4.5741447
0
LINE
8
0
6
CONTINUOUS
10
240.7819724
20
4.5741447
11
247.1502845
21
-11.1879808
0
LINE
8
0
6
CONTINUOUS
10
240.0327593
20
6.4285124
11
256.7220686
21
13.1714311
0
LINE
8
0
6
CONTINUOUS
10
256.7220686
20
13.1714311
11
250.3537565
21
28.9335566
0
LINE
8
0
6
CONTINUOUS
10
250.3537565
20
28.9335566
11
233.6644472
21
22.1906379
0
LINE
8
0
6
CONTINUOUS
10
233.6644472
20
22.1906379
11
240.0327593
21
6.4285124
0
LINE
8
0
6
CONTINUOUS
10
232.915234
20
24.0450057
11
249.6045433
21
30.7879244
0
LINE
8
0
6
CONTINUOUS
10
249.6045433
20
30.7879244
11
243.2362312
21
46.5500499
0
LINE
8
0
6
CONTINUOUS
10
243.2362312
20
46.5500499
11
226.5469219
21
39.8071312
0
LINE
8
0
6
CONTINUOUS
10
226.5469219
20
39.8071312
11
232.915234
21
24.0450057
0
LINE
8
0
6
CONTINUOUS
10
232.6038192
20
-26.5045314
11
248.6419367
21
-18.3327024
0
LINE
8
0
6
CONTINUOUS
10
248.6419367
20
-18.3327024
11
240.9240982
21
-3.1855914
0
LINE
8
0
6
CONTINUOUS
10
240.9240982
20
-3.1855914
11
224.8859807
21
-11.3574204
0
LINE
8
0
6
CONTINUOUS
10
224.8859807
20
-11.3574204
11
232.6038192
21
-26.5045314
0
LINE
8
0
6
CONTINUOUS
10
223.9779998
20
-9.5754074
11
240.0161173
21
-1.4035784
0
LINE
8
0
6
CONTINUOUS
10
240.0161173
20
-1.4035784
11
232.2982788
21
13.7435326
0
LINE
8
0
6
CONTINUOUS
10
232.2982788
20
13.7435326
11
216.2601613
21
5.5717036
0
LINE
8
0
6
CONTINUOUS
10
216.2601613
20
5.5717036
11
223.9779998
21
-9.5754074
0
LINE
8
0
6
CONTINUOUS
10
215.3521803
20
7.3537165
11
231.3902978
21
15.5255455
0
LINE
8
0
6
CONTINUOUS
10
231.3902978
20
15.5255455
11
223.6724593
21
30.6726565
0
LINE
8
0
6
CONTINUOUS
10
223.6724593
20
30.6726565
11
207.6343418
21
22.5008275
0
LINE
8
0
6
CONTINUOUS
10
207.6343418
20
22.5008275
11
215.3521803
21
7.3537165
0
LINE
8
0
6
CONTINUOUS
10
219.4476332
20
-43.0306058
11
234.7124989
21
-33.492059
0
LINE
8
0
6
CONTINUOUS
10
234.7124989
20
-33.492059
11
225.7038714
21
-19.0752414
0
LINE
8
0
6
CONTINUOUS
10
225.7038714
20
-19.0752414
11
210.4390057
21
-28.6137882
0
LINE
8
0
6
CONTINUOUS
10
210.4390057
20
-28.6137882
11
219.4476332
21
-43.0306058
0
LINE
8
0
6
CONTINUOUS
10
209.3791672
20
-26.9176919
11
224.6440329
21
-17.3791451
0
LINE
8
0
6
CONTINUOUS
10
224.6440329
20
-17.3791451
11
215.6354054
21
-2.9623275
0
LINE
8
0
6
CONTINUOUS
10
215.6354054
20
-2.9623275
11
200.3705397
21
-12.5008743
0
LINE
8
0
6
CONTINUOUS
10
200.3705397
20
-12.5008743
11
209.3791672
21
-26.9176919
0
LINE
8
0
6
CONTINUOUS
10
199.3107012
20
-10.8047781
11
214.5755669
21
-1.2662313
0
LINE
8
0
6
CONTINUOUS
10
214.5755669
20
-1.2662313
11
205.5669394
21
13.1505863
0
LINE
8
0
6
CONTINUOUS
10
205.5669394
20
13.1505863
11
190.3020737
21
3.6120395
0
LINE
8
0
6
CONTINUOUS
10
190.3020737
20
3.6120395
11
199.3107012
21
-10.8047781
0
LINE
8
0
6
CONTINUOUS
10
235.4460178
20
-69.3715008
11
247.7219883
21
-56.2071341
0
LINE
8
0
6
CONTINUOUS
10
247.7219883
20
-56.2071341
11
235.2889754
21
-44.613162
0
LINE
8
0
6
CONTINUOUS
10
235.2889754
20
-44.613162
11
223.0130049
21
-57.7775287
0
LINE
8
0
6
CONTINUOUS
10
223.0130049
20
-57.7775287
11
235.4460178
21
-69.3715008
0
LINE
8
0
6
CONTINUOUS
10
205.0836261
20
-71.1393166
11
217.3595966
21
-57.9749499
0
LINE
8
0
6
CONTINUOUS
10
217.3595966
20
-57.9749499
11
204.9265837
21
-46.3809778
0
LINE
8
0
6
CONTINUOUS
10
204.9265837
20
-46.3809778
11
192.6506132
21
-59.5453445
0
LINE
8
0
6
CONTINUOUS
10
192.6506132
20
-59.5453445
11
205.0836261
21
-71.1393166
0
LINE
8
0
6
CONTINUOUS
10
190.7616607
20
-86.4977443
11
203.0376312
21
-73.3333776
0
LINE
8
0
6
CONTINUOUS
10
203.0376312
20
-73.3333776
11
190.6046183
21
-61.7394055
0
LINE
8
0
6
CONTINUOUS
10
190.6046183
20
-61.7394055
11
178.3286478
21
-74.9037722
0
LINE
8
0
6
CONTINUOUS
10
178.3286478
20
-74.9037722
11
190.7616607
21
-86.4977443
0
LINE
8
0
6
CONTINUOUS
10
61.8479485
20
-73.8684283
11
89.4688821
21
-103.4882532
0
LINE
8
0
6
CONTINUOUS
10
89.4688821
20
-103.4882532
11
102.6332487
21
-91.2122827
0
LINE
8
0
6
CONTINUOUS
10
102.6332487
20
-91.2122827
11
75.0123151
21
-61.5924578
0
LINE
8
0
6
CONTINUOUS
10
75.0123151
20
-61.5924578
11
61.8479485
21
-73.8684283
0
LINE
8
0
6
CONTINUOUS
10
205.6826225
20
-103.4882532
11
233.3035561
21
-73.8684283
0
LINE
8
0
6
CONTINUOUS
10
233.3035561
20
-73.8684283
11
220.1391895
21
-61.5924578
0
LINE
8
0
6
CONTINUOUS
10
220.1391895
20
-61.5924578
11
192.5182559
21
-91.2122827
0
LINE
8
0
6
CONTINUOUS
10
192.5182559
20
-91.2122827
11
205.6826225
21
-103.4882532
0
ENDSEC
0
EOF